<svg xmlns="http://www.w3.org/2000/svg" version="1.1" viewBox="0 -0.43 180 181.15">
<path d="M0 0 C1.9375 1.375 1.9375 1.375 3 3 C3 3.66 3 4.32 3 5 C3.66 5 4.32 5 5 5 C6.62109375 6.64453125 6.62109375 6.64453125 8.4375 8.8125 C9.61897919 10.21343321 10.8062504 11.6095077 12 13 C12.59554687 13.74576294 12.59554687 13.74576294 13.203125 14.5065918 C15.76514309 16.63592124 18.28574615 17.11661044 21.50390625 17.9375 C22.14182602 18.1037085 22.77974579 18.26991699 23.43699646 18.44116211 C25.47645872 18.970543 27.5191799 19.48573268 29.5625 20 C45.25879433 24.02362625 45.25879433 24.02362625 50.7734375 25.5703125 C51.5267334 25.77930176 52.2800293 25.98829102 53.05615234 26.20361328 C56.60063608 27.65577429 57.99854256 29.77184284 60 33 C60.8125 35.4375 60.8125 35.4375 61 38 C61.0825 39.0725 61.165 40.145 61.25 41.25 C60.81408067 47.78878991 58.68096915 53.5661884 55 59 C55.99 59.33 56.98 59.66 58 60 C58 60.66 58 61.32 58 62 C58.66 62 59.32 62 60 62 C60 62.66 60 63.32 60 64 C60.66 64 61.32 64 62 64 C62 64.66 62 65.32 62 66 C62.99 66.33 63.98 66.66 65 67 C65 67.66 65 68.32 65 69 C65.66 69 66.32 69 67 69 C67 70.32 67 71.64 67 73 C65.68 73 64.36 73 63 73 C61.05887392 79.89231115 61.05887392 79.89231115 61 87 C62.4166747 88.7511573 62.4166747 88.7511573 64 90 C64 90.66 64 91.32 64 92 C60.04 93.98 60.04 93.98 56 96 C57.92140868 99.84281736 59.5926816 101.80431927 62.625 104.75 C63.44226563 105.54921875 64.25953125 106.3484375 65.1015625 107.171875 C65.72804687 107.77515625 66.35453125 108.3784375 67 109 C66.67 109.66 66.34 110.32 66 111 C63.4375 111.625 63.4375 111.625 61 112 C58.83419738 117.14378121 58.11605318 122.47770855 59 128 C59.52207031 128.51175781 60.04414063 129.02351562 60.58203125 129.55078125 C62 131 62 131 62.1484375 132.9609375 C60.28427495 136.27077713 56.9829495 137.1991026 53.625 138.625 C52.03605319 139.33604086 50.4488646 140.05102132 48.86328125 140.76953125 C48.04553223 141.13900879 47.2277832 141.50848633 46.38525391 141.88916016 C42.78805771 143.56441529 39.3048512 145.43067771 35.8125 147.3125 C25.90889969 152.60824266 15.86123875 157.61232916 5.8125 162.625 C5.00406647 163.02828522 4.19563293 163.43157043 3.36270142 163.84707642 C2.56794403 164.24341278 1.77318665 164.63974915 0.9543457 165.0480957 C-0.22679306 165.63720734 -0.22679306 165.63720734 -1.43179321 166.23822021 C-2.99858363 167.01846649 -4.56618431 167.79708792 -6.13461304 168.57403564 C-9.93733352 170.4597426 -13.72368959 172.36881096 -17.48413086 174.33764648 C-18.19962601 174.70791962 -18.91512115 175.07819275 -19.65229797 175.45968628 C-20.98538767 176.15087003 -22.31403652 176.85072499 -23.6368866 177.56130981 C-29.61704997 180.64208652 -35.42881133 181.49345197 -42 180 C-44.58282585 178.55045488 -45.35627686 177.55690266 -47 175 C-47 174.34 -47 173.68 -47 173 C-47.66 173 -48.32 173 -49 173 C-49.7425 171.4221875 -49.7425 171.4221875 -50.5 169.8125 C-53.0078383 164.77903732 -56.00878975 160.07761478 -58.98046875 155.30859375 C-60.80085485 152.32625907 -62.52102759 149.32027087 -64.1875 146.25 C-64.67734375 145.36183594 -65.1671875 144.47367188 -65.671875 143.55859375 C-67 141 -67 141 -67.953125 138.59765625 C-71.19756491 131.06592075 -77.47642944 128.45608653 -84.51904297 125.16113281 C-87.39084391 123.81707797 -90.24392453 122.43668058 -93.09765625 121.0546875 C-98.71822882 118.34086017 -104.35410629 115.66070007 -110 113 C-108.92439418 110.74058264 -107.99084766 108.989586 -106.328125 107.09765625 C-104.50269065 104.21454377 -105.01878874 102.71457486 -105.75 99.4375 C-105.95109375 98.48746094 -106.1521875 97.53742188 -106.359375 96.55859375 C-106.98899874 93.9057732 -106.98899874 93.9057732 -108 91 C-109.65 90.67 -111.3 90.34 -113 90 C-112.4352699 86.09170915 -110.57868029 84.10079777 -107.9375 81.25 C-107.20402344 80.45078125 -106.47054687 79.6515625 -105.71484375 78.828125 C-105.14894531 78.22484375 -104.58304688 77.6215625 -104 77 C-104.28875 76.47792969 -104.5775 75.95585938 -104.875 75.41796875 C-108.00176246 69.21872791 -108.87914728 63.90452251 -108 57 C-106.33105289 52.1688373 -104.22174879 49.80904474 -100 47 C-96.66011362 45.82819276 -93.26154686 45.03286717 -89.8125 44.25 C-88.89791016 44.02957031 -87.98332031 43.80914062 -87.04101562 43.58203125 C-80.38371021 42 -80.38371021 42 -78 42 C-78.32355469 41.4740625 -78.64710937 40.948125 -78.98046875 40.40625 C-80.28403686 37.32962948 -80.30102749 34.8346766 -80.3125 31.5 C-80.32925781 30.3759375 -80.34601563 29.251875 -80.36328125 28.09375 C-79.97084661 24.75172599 -79.36821904 23.35093277 -77 21 C-76.34 21 -75.68 21 -75 21 C-75 20.34 -75 19.68 -75 19 C-74.04222656 18.76925781 -73.08445313 18.53851562 -72.09765625 18.30078125 C-64.64996594 16.48563115 -57.23982015 14.56576481 -49.875 12.4375 C-49.17769775 12.24003174 -48.48039551 12.04256348 -47.76196289 11.83911133 C-43.58544384 10.61286151 -39.83444284 9.05255469 -36 7 C-34.66666667 6.33333333 -33.33333333 5.66666667 -32 5 C-32 4.34 -32 3.68 -32 3 C-31.319375 3.165 -30.63875 3.33 -29.9375 3.5 C-23.65365996 4.56958979 -19.56195937 3.96735608 -13.5 2 C-4.96744846 -0.75591607 -4.96744846 -0.75591607 0 0 Z " fill="#C94545" transform="translate(113,0)"/>
<path d="M0 0 C1.9375 1.375 1.9375 1.375 3 3 C3 3.66 3 4.32 3 5 C3.66 5 4.32 5 5 5 C6.62109375 6.64453125 6.62109375 6.64453125 8.4375 8.8125 C9.61897919 10.21343321 10.8062504 11.6095077 12 13 C12.59554687 13.74576294 12.59554687 13.74576294 13.203125 14.5065918 C15.76514309 16.63592124 18.28574615 17.11661044 21.50390625 17.9375 C22.14182602 18.1037085 22.77974579 18.26991699 23.43699646 18.44116211 C25.47645872 18.970543 27.5191799 19.48573268 29.5625 20 C45.25879433 24.02362625 45.25879433 24.02362625 50.7734375 25.5703125 C51.5267334 25.77930176 52.2800293 25.98829102 53.05615234 26.20361328 C56.60063608 27.65577429 57.99854256 29.77184284 60 33 C60.8125 35.4375 60.8125 35.4375 61 38 C61.0825 39.0725 61.165 40.145 61.25 41.25 C60.81408067 47.78878991 58.68096915 53.5661884 55 59 C56.485 59.495 56.485 59.495 58 60 C58 60.66 58 61.32 58 62 C58.66 62 59.32 62 60 62 C60 62.66 60 63.32 60 64 C60.66 64 61.32 64 62 64 C62 64.66 62 65.32 62 66 C62.99 66.33 63.98 66.66 65 67 C65 67.66 65 68.32 65 69 C65.66 69 66.32 69 67 69 C67 70.32 67 71.64 67 73 C65.68 73 64.36 73 63 73 C61.51446626 78.34792148 60.73083107 83.24820957 60.5390625 88.80078125 C59.80806379 91.7830441 58.52227568 92.31483771 56 94 C54.49461423 94.79929457 52.9662858 95.55633516 51.421875 96.27734375 C50.06956787 96.91482544 50.06956787 96.91482544 48.68994141 97.56518555 C47.23467041 98.2444812 47.23467041 98.2444812 45.75 98.9375 C37.32010454 102.91638383 28.9494646 106.99253104 20.625 111.1875 C12.97371466 115.03844944 5.29794885 118.81326808 -2.47412109 122.41479492 C-3.09109863 122.7007251 -3.70807617 122.98665527 -4.34375 123.28125 C-5.23549927 123.69431396 -5.23549927 123.69431396 -6.14526367 124.11572266 C-8.8624538 125.41118963 -11.53309584 126.79588903 -14.20239258 128.18701172 C-17.0703423 129.48407441 -18.93019006 129.68217999 -22 129 C-25.06270049 126.20362129 -26.69899594 124.15384891 -27.75 120.125 C-26.52041486 115.00172858 -24.1787962 112.18892533 -20 109 C-14.21823575 105.86490326 -8.10350777 103.42848563 -2 101 C-3.13888672 101.45052734 -3.13888672 101.45052734 -4.30078125 101.91015625 C-5.29464844 102.29042969 -6.28851563 102.67070313 -7.3125 103.0625 C-8.29863281 103.44535156 -9.28476563 103.82820313 -10.30078125 104.22265625 C-13 105 -13 105 -16 104 C-17.63134766 101.76049805 -17.63134766 101.76049805 -19.4140625 98.76171875 C-20.08397217 97.64563232 -20.75388184 96.5295459 -21.4440918 95.37963867 C-22.17113411 94.14896885 -22.89810146 92.91825475 -23.625 91.6875 C-24.38294249 90.41912276 -25.14182764 89.15130839 -25.90161133 87.8840332 C-27.48349428 85.2438741 -29.06125494 82.6013163 -30.63623047 79.95703125 C-33.93334558 74.42845673 -37.27984067 68.93003115 -40.6265564 63.43139648 C-42.03765778 61.1119379 -43.44609261 58.79086511 -44.85462952 56.46984863 C-47.9104933 51.43480077 -50.97205812 46.40326903 -54.0390625 41.375 C-54.67626221 40.32997314 -55.31346191 39.28494629 -55.9699707 38.20825195 C-57.1577439 36.26094604 -58.3463222 34.31413088 -59.53588867 32.36791992 C-62.43276354 27.61834651 -65.26902535 22.84698407 -68 18 C-63.63598157 16.49243 -59.26680839 15.06415503 -54.828125 13.79296875 C-53.71522095 13.47332153 -53.71522095 13.47332153 -52.57983398 13.1472168 C-51.09380788 12.72302651 -49.6063725 12.30373567 -48.11743164 11.88989258 C-43.80492893 10.65711317 -39.96885613 9.14070546 -36 7 C-34.66666667 6.33333333 -33.33333333 5.66666667 -32 5 C-32 4.34 -32 3.68 -32 3 C-31.319375 3.165 -30.63875 3.33 -29.9375 3.5 C-23.65365996 4.56958979 -19.56195937 3.96735608 -13.5 2 C-4.96744846 -0.75591607 -4.96744846 -0.75591607 0 0 Z " fill="#ED4B5C" transform="translate(113,0)"/>
<path d="M0 0 C3.16451682 2.91747756 5.23294119 5.81536131 7.328125 9.56640625 C7.95485107 10.67806152 8.58157715 11.7897168 9.22729492 12.93505859 C9.55635834 13.52534851 9.88542175 14.11563843 10.22445679 14.72381592 C11.99066769 17.89043419 13.77959368 21.04419409 15.56640625 24.19921875 C15.93353226 24.84856384 16.30065826 25.49790894 16.6789093 26.16693115 C20.42966615 32.78758723 24.29608839 39.33610215 28.1875 45.875 C28.84484131 46.98069336 29.50218262 48.08638672 30.17944336 49.22558594 C32.1183076 52.48451261 34.05912111 55.74227289 36 59 C38.44097753 63.10211191 40.87792049 67.2065884 43.3125 71.3125 C43.84576904 72.20759277 44.37903809 73.10268555 44.9284668 74.02490234 C46.9735918 77.4749045 48.92368908 80.83456684 50.60546875 84.48046875 C52.16934839 87.30596558 52.96181223 88.03790721 56 89 C57.57762713 89.26562089 59.16205987 89.49280033 60.75 89.6875 C66.58952085 90.75865471 70.06993644 93.67500359 74 98 C76.48386059 101.72579089 76.3804212 103.58711402 76 108 C74.34860695 111.5386994 73.28394771 112.81070153 70 115 C62.69370598 115.88193361 57.85988476 113.47819504 51.4375 110.1875 C49.39346909 109.17399514 47.34919101 108.16098865 45.3046875 107.1484375 C44.26280273 106.62604492 43.22091797 106.10365234 42.14746094 105.56542969 C37.15111749 103.08043479 32.10466983 100.70269052 27.0625 98.3125 C18.80444134 94.36977885 10.5957652 90.34266054 2.42675781 86.21923828 C-0.62013913 84.68843312 -3.67335037 83.1705132 -6.7265625 81.65234375 C-8.52932548 80.7549406 -10.33198786 79.85733568 -12.13461304 78.95965576 C-13.91638878 78.0730054 -15.6990342 77.1881034 -17.48168945 76.30322266 C-18.56925537 75.76101074 -19.65682129 75.21879883 -20.77734375 74.66015625 C-21.75952881 74.17168213 -22.74171387 73.68320801 -23.75366211 73.17993164 C-26 72 -26 72 -27 71 C-26.99399623 69.5410839 -26.94395731 68.08229788 -26.875 66.625 C-26.7898574 60.73313223 -28.21871442 55.57712032 -30 50 C-31.65 49.67 -33.3 49.34 -35 49 C-34.4352699 45.09170915 -32.57868029 43.10079777 -29.9375 40.25 C-29.20402344 39.45078125 -28.47054688 38.6515625 -27.71484375 37.828125 C-27.14894531 37.22484375 -26.58304688 36.6215625 -26 36 C-26.28875 35.47792969 -26.5775 34.95585938 -26.875 34.41796875 C-30.00176246 28.21872791 -30.87914728 22.90452251 -30 16 C-28.33156329 11.17031479 -26.22361154 8.8048273 -22 6 C-18.65903013 4.85175701 -15.25877133 4.07751812 -11.8125 3.3125 C-10.00610294 2.89368067 -8.20009249 2.4731893 -6.39453125 2.05078125 C-5.59893799 1.87200439 -4.80334473 1.69322754 -3.98364258 1.5090332 C-1.94430314 1.06000901 -1.94430314 1.06000901 0 0 Z " fill="#84BE4E" transform="translate(35,41)"/>
<path d="M0 0 C2.09187631 1.80957182 3.93657355 3.55633566 5.8125 5.5625 C6.56563477 6.34270508 6.56563477 6.34270508 7.33398438 7.13867188 C8.56529127 8.4168857 9.7839407 9.70727147 11 11 C10.67 11.66 10.34 12.32 10 13 C7.4375 13.625 7.4375 13.625 5 14 C3.05145133 18.79416502 3.14105198 22.14994545 3.5625 27.25 C3.53619086 30.32741824 3.07491661 31.95598835 2 35 C-2.42198423 39.29379036 -8.59700153 41.45338748 -14.19384766 43.80517578 C-17.86709486 45.36919804 -21.4467359 47.10182337 -25.03833008 48.84350586 C-27.89014037 50.22511421 -30.75295555 51.58185337 -33.6171875 52.9375 C-40.27537216 56.1114809 -46.87535003 59.3975408 -53.46942139 62.70202637 C-55.42325548 63.68036736 -57.37870367 64.65541653 -59.33447266 65.62988281 C-64.61792653 68.26699823 -69.89051406 70.91138936 -75.078125 73.734375 C-88.86514934 81.18504156 -88.86514934 81.18504156 -97 79 C-99.96712931 76.86090678 -100.66617054 75.46328582 -101.46875 71.9453125 C-101.82239272 68.29521446 -101.55587808 65.8959264 -99.6015625 62.74609375 C-96.60580898 59.19435977 -93.40844884 55.65316831 -89 54 C-84.32177887 54 -81.14293376 55.37599651 -77.125 57.5625 C-72.27305718 60.12900024 -68.41719643 60.73775049 -63 60 C-61.94425781 59.89558594 -61.94425781 59.89558594 -60.8671875 59.7890625 C-58.79168834 59.15979897 -58.79168834 59.15979897 -58.0546875 56.93359375 C-57.53261719 55.48146484 -57.53261719 55.48146484 -57 54 C-55.01300347 50.49474944 -52.79618166 47.12086792 -50.63867188 43.71875 C-47.9058005 39.33643276 -45.448272 34.96470524 -43.2734375 30.27734375 C-36.9190022 16.84154026 -31.02274507 10.36163238 -17.12304688 4.86816406 C-14.33469171 3.72793971 -11.75113725 2.28282235 -9.125 0.8125 C-5.67396473 -1.0912999 -3.75262878 -1.38402801 0 0 Z " fill="#D1DEE3" transform="translate(169,98)"/>
<path d="M0 0 C7.03429243 2.24281788 13.81962847 4.89134278 20.625 7.75 C21.69113525 8.19609619 22.75727051 8.64219238 23.85571289 9.10180664 C30.60832433 11.94514625 37.26277127 14.92228856 43.875 18.078125 C50.5691879 21.2385009 57.38340242 24.14239183 64.17163086 27.09350586 C80.02990062 34.01599403 80.02990062 34.01599403 82.54980469 36.57202148 C84.67394427 38.66361953 86.78765278 38.73018104 89.6875 39.25 C97.19759817 40.96139207 101.76666996 44.65000495 106 51 C106.46229036 55.99273591 106.08578614 58.99990685 103 63 C99.22146334 65.51902444 96.36863376 65.68612008 92 65 C88.32185865 63.69770923 84.90655202 61.96496939 81.4375 60.1875 C79.39346909 59.17399514 77.34919101 58.16098865 75.3046875 57.1484375 C73.74186035 56.36484863 73.74186035 56.36484863 72.14746094 55.56542969 C67.15111749 53.08043479 62.10466983 50.70269052 57.0625 48.3125 C48.80444134 44.36977885 40.5957652 40.34266054 32.42675781 36.21923828 C29.37986087 34.68843312 26.32664963 33.1705132 23.2734375 31.65234375 C21.47067452 30.7549406 19.66801214 29.85733568 17.86538696 28.95965576 C16.08361122 28.0730054 14.3009658 27.1881034 12.51831055 26.30322266 C11.43074463 25.76101074 10.34317871 25.21879883 9.22265625 24.66015625 C8.24047119 24.17168213 7.25828613 23.68320801 6.24633789 23.17993164 C4 22 4 22 3 21 C3.00600377 19.5410839 3.05604269 18.08229788 3.125 16.625 C3.2101426 10.73313223 1.78128558 5.57712032 0 0 Z " fill="#D6E0E4" transform="translate(5,91)"/>
<path d="M0 0 C0.33 0 0.66 0 1 0 C1.08000244 1.13961182 1.08000244 1.13961182 1.16162109 2.30224609 C1.76015532 5.17952985 1.76015532 5.17952985 4.31884766 6.67822266 C5.34026855 7.1685498 6.36168945 7.65887695 7.4140625 8.1640625 C8.55504395 8.72262939 9.69602539 9.28119629 10.87158203 9.85668945 C12.12256388 10.44646043 13.37370749 11.03588842 14.625 11.625 C15.91467757 12.24863816 17.20357029 12.8739018 18.49169922 13.50073242 C21.72648552 15.06946963 24.97072969 16.61725183 28.21972656 18.15631104 C30.74308484 19.35215516 33.26205288 20.55713817 35.78125 21.76171875 C38.45448083 23.0388913 41.12849784 24.31415623 43.80615234 25.58203125 C54.56054136 30.69302801 65.18514092 36.06685373 75.81689453 41.42700195 C76.5352951 41.78831711 77.25369568 42.14963226 77.99386597 42.52189636 C79.35130347 43.20470947 80.70789607 43.88920568 82.06350708 44.57563782 C87.46095628 47.28886615 91.90650502 48.70026051 98 48 C101.23613354 46.25746655 101.82395315 45.52814056 103 42 C103.45719084 38.6037252 103.65796378 36.11102534 101.87109375 33.09375 C97.72987962 27.99021718 93.66936735 25.47359743 87.125 24.3125 C86.09375 24.209375 85.0625 24.10625 84 24 C84 23.67 84 23.34 84 23 C84.91265625 22.92265625 84.91265625 22.92265625 85.84375 22.84375 C95.2521289 21.62619508 102.777295 17.4429441 111 13 C113.12225875 11.85932208 115.24474126 10.7190761 117.36816406 9.58056641 C118.6831614 8.87251553 119.99514897 8.15883957 121.30371094 7.43896484 C125.78394329 5 125.78394329 5 128 5 C126.69850612 9.32762745 125.02078519 12.94783473 122.6875 16.8125 C120.60603583 20.27848864 118.569091 23.75670712 116.6171875 27.296875 C113.97932235 32.06507303 111.24215431 36.76566944 108.4375 41.4375 C107.96892578 42.23865234 107.50035156 43.03980469 107.01757812 43.86523438 C106.55673828 44.63029297 106.09589844 45.39535156 105.62109375 46.18359375 C105.2130249 46.86993896 104.80495605 47.55628418 104.38452148 48.26342773 C101.74667251 51.57201877 99.19363702 51.97541117 95.0625 52.5 C89.41042668 52.43449584 85.00045812 49.84640053 80.11328125 47.21484375 C76.44890533 45.78495553 74.7291128 45.83465225 71 47 C68.65787529 48.49975709 68.65787529 48.49975709 66.6875 50.4375 C65.67236328 51.36369141 65.67236328 51.36369141 64.63671875 52.30859375 C62.07189134 54.95911946 61.82161572 56.78227805 61.75 60.375 C61.72421875 61.14585937 61.6984375 61.91671875 61.671875 62.7109375 C62.09086349 65.63388101 62.90581223 66.92882528 65 69 C70.71283292 70.79635697 76.17683784 69.18898115 81.34986877 66.53813171 C81.99238083 66.19683731 82.63489288 65.85554291 83.296875 65.50390625 C84.71952881 64.7704448 86.14230327 64.03721734 87.56518555 63.30419922 C88.66182022 62.7329129 88.66182022 62.7329129 89.78060913 62.15008545 C93.37821622 60.28581016 97.00443877 58.47929833 100.62890625 56.66796875 C102.09969999 55.93019364 103.57040214 55.19223592 105.04101562 54.45410156 C118.75149328 47.57943221 132.48725145 40.78332275 146.34765625 34.21484375 C151.94199304 31.56238583 157.48375984 28.81150305 163 26 C163 24.35 163 22.7 163 21 C164.9375 21.75 164.9375 21.75 167 23 C167.62890625 25.078125 167.62890625 25.078125 168 27 C160.34983612 31.18698926 152.67101109 35.22200732 144.75 38.875 C137.90721419 42.03848331 131.23816305 45.45881316 124.58569336 49.00292969 C117.0278231 53.01692913 109.39136786 56.86554288 101.71728516 60.65234375 C97.22316822 62.87151769 92.75595289 65.10283472 88.375 67.5390625 C80.46403159 71.88990994 73.24483686 75.10109929 64 73 C61.41717415 71.55045488 60.64372314 70.55690266 59 68 C59 67.34 59 66.68 59 66 C58.34 66 57.68 66 57 66 C56.2575 64.4221875 56.2575 64.4221875 55.5 62.8125 C52.9921617 57.77903732 49.99121025 53.07761478 47.01953125 48.30859375 C45.19914515 45.32625907 43.47897241 42.32027087 41.8125 39.25 C41.32265625 38.36183594 40.8328125 37.47367188 40.328125 36.55859375 C39 34 39 34 38.046875 31.59765625 C34.80243509 24.06592075 28.52357056 21.45608653 21.48095703 18.16113281 C18.60915609 16.81707797 15.75607547 15.43668058 12.90234375 14.0546875 C7.28177118 11.34086017 1.64589371 8.66070007 -4 6 C-2.84826645 3.53199953 -1.95216435 1.95216435 0 0 Z " fill="#3F8BBF" transform="translate(7,107)"/>
<path d="M0 0 C0.495 0.99 0.495 0.99 1 2 C0.71125 2.825 0.4225 3.65 0.125 4.5 C-1.10824524 8.33676296 -1.3256124 11.72607607 -1.4609375 15.73046875 C-2.18475674 18.77785264 -3.42658041 19.28568862 -6 21 C-7.50538577 21.79929457 -9.0337142 22.55633516 -10.578125 23.27734375 C-11.93043213 23.91482544 -11.93043213 23.91482544 -13.31005859 24.56518555 C-14.28023926 25.01804932 -15.25041992 25.47091309 -16.25 25.9375 C-24.67989546 29.91638383 -33.0505354 33.99253104 -41.375 38.1875 C-49.02628534 42.03844944 -56.70205115 45.81326808 -64.47412109 49.41479492 C-65.09109863 49.7007251 -65.70807617 49.98665527 -66.34375 50.28125 C-66.93824951 50.55662598 -67.53274902 50.83200195 -68.14526367 51.11572266 C-70.8624538 52.41118963 -73.53309584 53.79588903 -76.20239258 55.18701172 C-79.0703423 56.48407441 -80.93019006 56.68217999 -84 56 C-87.06270049 53.20362129 -88.69899594 51.15384891 -89.75 47.125 C-88.40152106 41.50633774 -84.37561075 37.46586194 -79.51367188 34.46582031 C-76.66935724 33.06211925 -73.79852522 31.79263126 -70.875 30.5625 C-69.81748535 30.09787354 -68.7599707 29.63324707 -67.67041016 29.15454102 C-64.45572334 27.7482057 -61.22992813 26.37091166 -58 25 C-56.17676185 24.21689389 -54.35382606 23.4330833 -52.53125 22.6484375 C-49.95956647 21.5438023 -47.38670098 20.44245744 -44.80957031 19.35058594 C-38.36248357 16.61479145 -31.98863425 13.73655382 -25.625 10.8125 C-17.17960726 6.93461993 -8.67841668 3.32537462 0 0 Z " fill="#D8DFE4" transform="translate(175,73)"/>
<path d="M0 0 C2.0598755 2.08406867 4.09351751 4.1439653 6.015625 6.35546875 C6.88767578 7.34546875 6.88767578 7.34546875 7.77734375 8.35546875 C9.27242764 10.28363739 10.32375738 12.1389333 11.328125 14.35546875 C9.71357422 14.91814453 9.71357422 14.91814453 8.06640625 15.4921875 C-2.50458386 19.19026957 -12.98997117 23.05093373 -23.37109375 27.2578125 C-24.18586182 27.58402588 -25.00062988 27.91023926 -25.84008789 28.24633789 C-27.45316767 28.89249953 -29.06317248 29.54640187 -30.66967773 30.20874023 C-36.33427542 32.46800194 -36.33427542 32.46800194 -39.671875 31.35546875 C-40.94628906 29.71313477 -40.94628906 29.71313477 -42.1875 27.609375 C-42.63351563 26.85462891 -43.07953125 26.09988281 -43.5390625 25.32226562 C-44.22355469 24.13213867 -44.22355469 24.13213867 -44.921875 22.91796875 C-45.39367187 22.12841797 -45.86546875 21.33886719 -46.3515625 20.52539062 C-48.91175513 16.13488484 -48.91175513 16.13488484 -49.671875 14.35546875 C-48.671875 12.35546875 -48.671875 12.35546875 -46.05834961 11.3815918 C-44.90858643 11.04683838 -43.75882324 10.71208496 -42.57421875 10.3671875 C-41.95236694 10.18333496 -41.33051514 9.99948242 -40.68981934 9.81005859 C-38.66520872 9.21318551 -36.63760052 8.6274303 -34.609375 8.04296875 C-31.85861612 7.24347513 -29.10884562 6.44063031 -26.359375 5.63671875 C-25.34985023 5.34277473 -25.34985023 5.34277473 -24.31993103 5.04289246 C-20.61066263 3.9548712 -16.94203446 2.79790634 -13.296875 1.51171875 C-12.56734619 1.25817627 -11.83781738 1.00463379 -11.08618164 0.7434082 C-9.25297634 0.09385083 -7.42876411 -0.58093697 -5.60546875 -1.2578125 C-2.671875 -1.64453125 -2.671875 -1.64453125 0 0 Z " fill="#FEFBFB" transform="translate(114.671875,17.64453125)"/>
<path d="M0 0 C0.33 0 0.66 0 1 0 C1.08000244 1.13961182 1.08000244 1.13961182 1.16162109 2.30224609 C1.76015532 5.17952985 1.76015532 5.17952985 4.31884766 6.67822266 C5.34026855 7.1685498 6.36168945 7.65887695 7.4140625 8.1640625 C8.55504395 8.72262939 9.69602539 9.28119629 10.87158203 9.85668945 C12.12256388 10.44646043 13.37370749 11.03588842 14.625 11.625 C15.91467757 12.24863816 17.20357029 12.8739018 18.49169922 13.50073242 C21.72648552 15.06946963 24.97072969 16.61725183 28.21972656 18.15631104 C30.74308484 19.35215516 33.26205288 20.55713817 35.78125 21.76171875 C38.45448083 23.0388913 41.12849784 24.31415623 43.80615234 25.58203125 C54.56054136 30.69302801 65.18514092 36.06685373 75.81689453 41.42700195 C76.5352951 41.78831711 77.25369568 42.14963226 77.99386597 42.52189636 C79.35130347 43.20470947 80.70789607 43.88920568 82.06350708 44.57563782 C87.46095628 47.28886615 91.90650502 48.70026051 98 48 C101.23613354 46.25746655 101.82395315 45.52814056 103 42 C103.45719084 38.6037252 103.65796378 36.11102534 101.87109375 33.09375 C97.72987962 27.99021718 93.66936735 25.47359743 87.125 24.3125 C86.09375 24.209375 85.0625 24.10625 84 24 C84 23.67 84 23.34 84 23 C84.91265625 22.92265625 84.91265625 22.92265625 85.84375 22.84375 C95.2521289 21.62619508 102.777295 17.4429441 111 13 C113.12225875 11.85932208 115.24474126 10.7190761 117.36816406 9.58056641 C118.6831614 8.87251553 119.99514897 8.15883957 121.30371094 7.43896484 C125.78394329 5 125.78394329 5 128 5 C126.69850612 9.32762745 125.02078519 12.94783473 122.6875 16.8125 C120.60603583 20.27848864 118.569091 23.75670712 116.6171875 27.296875 C113.97932235 32.06507303 111.24215431 36.76566944 108.4375 41.4375 C107.96892578 42.23865234 107.50035156 43.03980469 107.01757812 43.86523438 C106.55673828 44.63029297 106.09589844 45.39535156 105.62109375 46.18359375 C105.2130249 46.86993896 104.80495605 47.55628418 104.38452148 48.26342773 C102.28956837 50.89107744 100.21134162 51.8173757 96.91748047 52.31396484 C91.19162371 52.37180178 87.17899231 51.24299261 82.125 48.625 C81.40086914 48.26776855 80.67673828 47.91053711 79.93066406 47.54248047 C73.68065081 44.43084571 67.52194485 41.13508506 61.36083984 37.85180664 C52.96326014 33.3975192 44.38443041 29.35218554 35.78271484 25.31054688 C30.86748854 22.99567279 25.96461552 20.65498311 21.0625 18.3125 C20.09981201 17.85262695 19.13712402 17.39275391 18.14526367 16.91894531 C10.72021417 13.36352214 3.34025669 9.72737472 -4 6 C-2.84826645 3.53199953 -1.95216435 1.95216435 0 0 Z " fill="#5A7E2C" transform="translate(7,107)"/>
<path d="M0 0 C-9.83340211 5.28961304 -19.71766402 10.41303556 -29.8125 15.1875 C-38.41741659 19.25745283 -46.95973677 23.43756994 -55.46942139 27.70202637 C-57.42325548 28.68036736 -59.37870367 29.65541653 -61.33447266 30.62988281 C-66.61792653 33.26699823 -71.89051406 35.91138936 -77.078125 38.734375 C-90.86514934 46.18504156 -90.86514934 46.18504156 -99 44 C-101.96712931 41.86090678 -102.66617054 40.46328582 -103.46875 36.9453125 C-103.82239272 33.29521446 -103.55587808 30.8959264 -101.6015625 27.74609375 C-98.60580898 24.19435977 -95.40844884 20.65316831 -91 19 C-86.35595056 19 -83.13602401 20.3607872 -79.125 22.5 C-74.9428307 24.72537449 -71.52548471 25.62372576 -66.8125 25.859375 C-65 26 -65 26 -63 27 C-60.36003598 25.98357232 -60.36003598 25.98357232 -57.33984375 24.421875 C-56.16494385 23.84284424 -54.99004395 23.26381348 -53.77954102 22.66723633 C-53.15298615 22.35444733 -52.52643127 22.04165833 -51.88088989 21.71939087 C-48.60408417 20.08487298 -45.31446351 18.4767464 -42.0234375 16.87109375 C-41.35439896 16.54441208 -40.68536041 16.21773041 -39.99604797 15.88114929 C-32.4066259 12.19510047 -24.69130089 8.81332013 -16.94702148 5.46582031 C-15.98610596 5.05041992 -15.02519043 4.63501953 -14.03515625 4.20703125 C-12.71088623 3.63782959 -12.71088623 3.63782959 -11.35986328 3.05712891 C-9.36708357 2.16443947 -7.42403884 1.16194708 -5.49609375 0.13671875 C-3 -1 -3 -1 0 0 Z " fill="#D6E1E6" transform="translate(171,133)"/>
<path d="M0 0 C6.95016352 0.90225698 13.6598107 2.50381208 20.44311523 4.21875 C21.85605209 4.5729201 23.27080204 4.91993389 24.68725586 5.25976562 C26.75546555 5.75615512 28.81723553 6.27407044 30.87890625 6.796875 C32.1016626 7.09948242 33.32441895 7.40208984 34.58422852 7.71386719 C38.70827767 9.26668621 40.85257377 10.93317256 44 14 C46.98601319 21.3293051 46.49406819 27.69387283 43.859375 34.9765625 C42.86397948 37.3202665 41.80748745 39.19251255 40 41 C39.34 41 38.68 41 38 41 C36.67773438 39.65429688 36.67773438 39.65429688 35.09375 37.71875 C32.05388404 34.14391798 28.86158175 30.77161856 25.53125 27.46875 C25.04350098 26.9843042 24.55575195 26.4998584 24.05322266 26.00073242 C22.53743803 24.49849478 21.01917456 22.99880899 19.5 21.5 C2.23149606 4.46299213 2.23149606 4.46299213 0 0 Z " fill="#6A9732" transform="translate(128,17)"/>
<path d="M0 0 C2.09187631 1.80957182 3.93657355 3.55633566 5.8125 5.5625 C6.56563477 6.34270508 6.56563477 6.34270508 7.33398438 7.13867188 C8.56529127 8.4168857 9.7839407 9.70727147 11 11 C10 13 10 13 6.375 14.25 C5.55902344 14.5078125 4.74304688 14.765625 3.90234375 15.03125 C-6.31392392 18.4412559 -16.19095088 22.90470503 -26.03515625 27.25390625 C-32.00057898 29.88896677 -38.00152885 32.44127715 -44 35 C-42.78615009 26.69726664 -38.94377114 18.90668651 -33 13 C-28.43807337 9.83917568 -23.67376241 7.2966457 -18.6875 4.875 C-18.05677582 4.5655545 -17.42605164 4.25610901 -16.7762146 3.93728638 C-4.98748012 -1.75237225 -4.98748012 -1.75237225 0 0 Z " fill="#42AEE0" transform="translate(169,98)"/>
<path d="M0 0 C2.0625 1.6875 2.0625 1.6875 4 4 C3.73697382 8.21875048 2.31769525 10.15773905 -0.67578125 13.03125 C-1.42150391 13.75957031 -2.16722656 14.48789062 -2.93554688 15.23828125 C-4.11213867 16.35783203 -4.11213867 16.35783203 -5.3125 17.5 C-6.85246421 18.98730489 -8.39028976 20.47682792 -9.92578125 21.96875 C-10.64330566 22.66355469 -11.36083008 23.35835937 -12.10009766 24.07421875 C-14.17270851 26.10757914 -14.17270851 26.10757914 -16.41796875 29.03125 C-16.94003906 29.6809375 -17.46210938 30.330625 -18 31 C-18.66 31 -19.32 31 -20 31 C-20.37125 31.9590625 -20.37125 31.9590625 -20.75 32.9375 C-22 35 -22 35 -24.078125 35.62890625 C-24.71234375 35.75136719 -25.3465625 35.87382813 -26 36 C-29.68237346 29.34213728 -30.9669426 23.59403697 -30 16 C-28.33156329 11.17031479 -26.22361154 8.8048273 -22 6 C-18.65903013 4.85175701 -15.25877133 4.07751812 -11.8125 3.3125 C-10.00610294 2.89368067 -8.20009249 2.4731893 -6.39453125 2.05078125 C-5.59893799 1.87200439 -4.80334473 1.69322754 -3.98364258 1.5090332 C-1.94430314 1.06000901 -1.94430314 1.06000901 0 0 Z " fill="#408CC1" transform="translate(35,41)"/>
<path d="M0 0 C1.9375 0.75 1.9375 0.75 4 2 C4.62890625 4.078125 4.62890625 4.078125 5 6 C-2.65016388 10.18698926 -10.32898891 14.22200732 -18.25 17.875 C-25.09278581 21.03848331 -31.76183695 24.45881316 -38.41430664 28.00292969 C-45.9721769 32.01692913 -53.60863214 35.86554288 -61.28271484 39.65234375 C-65.77683178 41.87151769 -70.24404711 44.10283472 -74.625 46.5390625 C-82.53596841 50.88990994 -89.75516314 54.10109929 -99 52 C-101.58282585 50.55045488 -102.35627686 49.55690266 -104 47 C-104 46.34 -104 45.68 -104 45 C-104.66 45 -105.32 45 -106 45 C-105.5732675 31.81396579 -105.5732675 31.81396579 -101 27 C-95.36477987 23 -95.36477987 23 -92 23 C-91.67 22.34 -91.34 21.68 -91 21 C-90.01 21.99 -89.02 22.98 -88 24 C-88.90492187 24.56267578 -88.90492187 24.56267578 -89.828125 25.13671875 C-96.34619098 29.13204531 -96.34619098 29.13204531 -101 35 C-101.6356158 39.10933008 -101.8126362 42.53159724 -99.765625 46.23046875 C-97.52978582 48.47125447 -96.45431141 48.653773 -93.3125 48.75 C-88.12112346 48.47476352 -84.22829896 46.90762231 -79.703125 44.50390625 C-78.28047119 43.7704448 -76.85769673 43.03721734 -75.43481445 42.30419922 C-74.33817978 41.7329129 -74.33817978 41.7329129 -73.21939087 41.15008545 C-69.62178378 39.28581016 -65.99556123 37.47929833 -62.37109375 35.66796875 C-60.90030001 34.93019364 -59.42959786 34.19223592 -57.95898438 33.45410156 C-44.24850672 26.57943221 -30.51274855 19.78332275 -16.65234375 13.21484375 C-11.05800696 10.56238583 -5.51624016 7.81150305 0 5 C0 3.35 0 1.7 0 0 Z " fill="#296988" transform="translate(170,128)"/>
<path d="M0 0 C0.25 3.3125 0.25 3.3125 0 7 C-2.57228595 9.36204406 -5.43075134 10.80799152 -8.578125 12.27734375 C-9.48054932 12.70273438 -10.38297363 13.128125 -11.31274414 13.56640625 C-12.28203857 14.01886719 -13.25133301 14.47132812 -14.25 14.9375 C-24.90081798 19.96612772 -35.44932998 25.17931847 -45.97265625 30.46875 C-46.85066895 30.90960938 -47.72868164 31.35046875 -48.63330078 31.8046875 C-50.07288625 32.53175687 -51.50959691 33.26460579 -52.94091797 34.0078125 C-56.79612661 36 -56.79612661 36 -59 36 C-59 35.34 -59 34.68 -59 34 C-59.99 33.67 -60.98 33.34 -62 33 C-60.87980469 32.45730469 -59.75960937 31.91460937 -58.60546875 31.35546875 C-57.13265508 30.63313338 -55.66000746 29.91045938 -54.1875 29.1875 C-53.44951172 28.83107422 -52.71152344 28.47464844 -51.95117188 28.10742188 C-51.23896484 27.75615234 -50.52675781 27.40488281 -49.79296875 27.04296875 C-48.81106567 26.56380005 -48.81106567 26.56380005 -47.80932617 26.07495117 C-45.88382936 24.93098106 -44.51164489 23.64255865 -43 22 C-43.33 21.34 -43.66 20.68 -44 20 C-43.44763672 19.73896484 -42.89527344 19.47792969 -42.32617188 19.20898438 C-23.36850828 10.33995055 -23.36850828 10.33995055 -4.75390625 0.78125 C-3 0 -3 0 0 0 Z " fill="#D0D3D8" transform="translate(173,84)"/>
<path d="M0 0 C0 1.98 0 3.96 0 6 C-1.24523437 6.53173828 -1.24523437 6.53173828 -2.515625 7.07421875 C-11.68476018 11.02340942 -20.75856918 15.16902229 -29.8125 19.375 C-30.41492523 19.65437408 -31.01735046 19.93374817 -31.63803101 20.22158813 C-37.75561889 23.05971403 -43.86107323 25.9172955 -49.921875 28.875 C-51.23901489 29.51429443 -51.23901489 29.51429443 -52.58276367 30.16650391 C-54.19397745 30.95172673 -55.80119078 31.74523129 -57.40356445 32.54833984 C-62.66769616 35.11076795 -62.66769616 35.11076795 -66 34 C-64.625 32.5 -64.625 32.5 -63 31 C-62.34 31 -61.68 31 -61 31 C-60.731875 30.236875 -60.46375 29.47375 -60.1875 28.6875 C-59.00172475 26.00390337 -58.3185214 24.73889105 -56 23 C-54.00128012 22.32950518 -52.00108049 21.6634164 -50 21 C-48.08407094 20.18183213 -46.18053987 19.33414777 -44.2890625 18.4609375 C-43.2160791 17.9664209 -42.1430957 17.4719043 -41.03759766 16.96240234 C-39.34836182 16.17663818 -39.34836182 16.17663818 -37.625 15.375 C-36.46919434 14.83955566 -35.31338867 14.30411133 -34.12255859 13.75244141 C-24.56116105 9.30344825 -14.99801353 4.79960872 -5.7265625 -0.234375 C-3.4764179 -1.23217668 -2.26939567 -0.81049845 0 0 Z " fill="#D0DADD" transform="translate(171,126)"/>
<path d="M0 0 C-1.30149388 4.32762745 -2.97921481 7.94783473 -5.3125 11.8125 C-7.44843086 15.39150812 -9.56210395 18.9684319 -11.5625 22.625 C-14.24558282 27.48307354 -16.94296034 32.36606964 -20 37 C-20.33 37 -20.66 37 -21 37 C-21.03738281 36.40832031 -21.07476562 35.81664062 -21.11328125 35.20703125 C-21.62330264 28.57011604 -21.62330264 28.57011604 -25 23 C-27.90766613 21.13558175 -30.90293327 19.52580856 -34 18 C-31.23492425 14.632013 -27.46810005 13.08992586 -23.625 11.25 C-17.13671951 8.0865745 -10.78705305 4.75756795 -4.4765625 1.25 C-2 0 -2 0 0 0 Z " fill="#699533" transform="translate(135,112)"/>
<path d="M0 0 C6.42351364 0.73593296 12.56369303 2.30584533 18.8125 3.9375 C19.86115234 4.20240234 20.90980469 4.46730469 21.99023438 4.74023438 C23.48973633 5.12985352 23.48973633 5.12985352 25.01953125 5.52734375 C26.38235229 5.87913696 26.38235229 5.87913696 27.77270508 6.23803711 C30 7 30 7 32 9 C29.03 13.62 26.06 18.24 23 23 C18.96491429 20.98245714 16.82461582 19.06092526 13.6875 15.875 C12.96554443 15.14228882 12.96554443 15.14228882 12.22900391 14.39477539 C1.93326483 3.86652966 1.93326483 3.86652966 0 0 Z " fill="#85BE4E" transform="translate(128,17)"/>
<path d="M0 0 C2 3 2 3 2 6 C1.17242187 6.09152344 0.34484375 6.18304688 -0.5078125 6.27734375 C-4.67593051 7.13987376 -8.07187174 8.6995374 -11.875 10.5625 C-12.6160498 10.91820068 -13.35709961 11.27390137 -14.12060547 11.64038086 C-19.80701562 14.3822368 -25.44973194 17.2116094 -31.08789062 20.05102539 C-35.82163714 22.42910767 -40.58244243 24.74273666 -45.375 27 C-46.01195801 27.30301025 -46.64891602 27.60602051 -47.30517578 27.91821289 C-51.76204551 30 -51.76204551 30 -54 30 C-53.44968665 26.14780658 -51.86503304 24.55018754 -49 22 C-41.09042896 17.33553613 -32.40389555 13.947224 -23.9375 10.4375 C-15.89523151 7.08694972 -7.90799719 3.65768368 0 0 Z " fill="#D6E0E5" transform="translate(169,120)"/>
<path d="M0 0 C2 1.375 2 1.375 4 3 C4 3.66 4 4.32 4 5 C2.71323688 5.75838213 1.42016797 6.50606269 0.125 7.25 C-0.59429687 7.66765625 -1.31359375 8.0853125 -2.0546875 8.515625 C-4.57055807 9.78357038 -7.03514651 10.82423113 -9.65625 11.84375 C-15.14725965 14.00191308 -20.37076407 16.57413622 -25.625 19.25 C-27.56769662 20.23049195 -29.51040503 21.21096055 -31.453125 22.19140625 C-32.39736328 22.66980957 -33.34160156 23.14821289 -34.31445312 23.64111328 C-37.99464949 25.50329264 -41.68417386 27.34650569 -45.375 29.1875 C-49.37461205 31.18448543 -53.37168852 33.18624382 -57.36328125 35.19921875 C-58.08660645 35.56313721 -58.80993164 35.92705566 -59.55517578 36.30200195 C-60.93329667 36.99548046 -62.31063235 37.69052257 -63.68701172 38.38745117 C-70.65924216 41.8916058 -76.10932376 44.20300474 -84 43 C-87.125 41.125 -87.125 41.125 -89 38 C-89.94741141 33.65218948 -90.0095336 29.82518327 -87.8203125 25.8671875 C-85.07666467 22.46961324 -82.38255223 19.94757886 -78 19 C-77.01 19.33 -76.02 19.66 -75 20 C-75.54269531 20.38671875 -76.08539063 20.7734375 -76.64453125 21.171875 C-77.35996094 21.69265625 -78.07539062 22.2134375 -78.8125 22.75 C-79.52019531 23.26046875 -80.22789063 23.7709375 -80.95703125 24.296875 C-84.08670449 26.90593338 -85.83087227 28.86442811 -86.4375 32.9375 C-85.88481128 36.80632104 -84.90672632 38.39924487 -82 41 C-75.9834895 41.98418227 -71.34403459 39.11731537 -66.125 36.5 C-65.18954346 36.04222168 -64.25408691 35.58444336 -63.2902832 35.11279297 C-60.52079176 33.75372794 -57.75959556 32.37902536 -55 31 C-53.6369217 30.32511077 -52.27366278 29.65058614 -50.91015625 28.9765625 C-47.70242824 27.38479211 -44.50408144 25.77490158 -41.30712891 24.16162109 C-37.55637845 22.27314801 -33.7993034 20.39735337 -30.04248047 18.52099609 C-27.9454097 17.47262235 -25.84936435 16.42219472 -23.75439453 15.36962891 C-19.31763388 13.14236226 -14.88057957 10.92650597 -10.38671875 8.81640625 C-9.72752441 8.5026001 -9.06833008 8.18879395 -8.38916016 7.86547852 C-6.70311316 7.06662305 -5.01004941 6.28262211 -3.31640625 5.5 C-0.83799086 4.21634542 -0.83799086 4.21634542 -0.15234375 1.8125 C-0.10207031 1.214375 -0.05179687 0.61625 0 0 Z " fill="#99413A" transform="translate(173,87)"/>
<path d="M0 0 C4 4 4 4 4.06640625 6.41796875 C2.6488214 9.85028959 0.62259993 11.7633545 -2.0625 14.3125 C-2.98160156 15.19550781 -3.90070312 16.07851563 -4.84765625 16.98828125 C-5.91306641 17.98408203 -5.91306641 17.98408203 -7 19 C-9.60912969 15.86123928 -11.81853262 12.78217539 -13.75 9.1875 C-14.4925 7.805625 -15.235 6.42375 -16 5 C-10.72 3.35 -5.44 1.7 0 0 Z " fill="#41ADE1" transform="translate(35,41)"/>
<path d="M0 0 C0 1.98 0 3.96 0 6 C-5.62856509 8.70021479 -11.25938724 11.39556969 -16.89453125 14.08203125 C-20.52511095 15.81320958 -24.14876481 17.55657809 -27.76171875 19.32421875 C-29.09107813 19.96628603 -30.42049957 20.60822483 -31.75 21.25 C-32.89984375 21.81203125 -34.0496875 22.3740625 -35.234375 22.953125 C-38 24 -38 24 -41 23 C-31.12852467 17.68004323 -21.25599164 12.54830934 -11 8 C-18.05648613 10.07261817 -24.59138391 13.46963976 -31.20898438 16.63085938 C-32.16482422 17.07623047 -33.12066406 17.52160156 -34.10546875 17.98046875 C-35.40713989 18.59764771 -35.40713989 18.59764771 -36.73510742 19.22729492 C-39 20 -39 20 -42 19 C-40.8140625 18.443125 -39.628125 17.88625 -38.40625 17.3125 C-21.41777296 9.36340243 -21.41777296 9.36340243 -4.74609375 0.77734375 C-3 0 -3 0 0 0 Z " fill="#9EA1A4" transform="translate(173,84)"/>
<path d="M0 0 C14.82135837 6.89959786 29.44710777 14.17008958 44.05004883 21.51708984 C47.03122607 23.01569703 50.01510922 24.50880515 53 26 C50 27 50 27 47.9765625 26.29418945 C47.20054688 25.90448975 46.42453125 25.51479004 45.625 25.11328125 C44.28900757 24.45549683 44.28900757 24.45549683 42.92602539 23.78442383 C41.96043701 23.29868896 40.99484863 22.8129541 40 22.3125 C30.77058526 17.77497163 21.47052403 13.4622026 12.0625 9.3125 C10.86560547 8.78374268 9.66871094 8.25498535 8.43554688 7.71020508 C5.62487266 6.47077011 2.81312886 5.23385125 0 4 C0 2.68 0 1.36 0 0 Z " fill="#A2A7AA" transform="translate(8,107)"/>
<path d="M0 0 C0.495 1.485 0.495 1.485 1 3 C-0.24523437 3.53173828 -0.24523437 3.53173828 -1.515625 4.07421875 C-8.43301626 7.05547081 -15.3019643 10.12367887 -22.12109375 13.32421875 C-22.74188812 13.61505844 -23.3626825 13.90589813 -24.00228882 14.20555115 C-27.14267245 15.67763919 -30.27985269 17.15606544 -33.41308594 18.64331055 C-34.58000977 19.19156494 -35.74693359 19.73981934 -36.94921875 20.3046875 C-37.99424561 20.79952637 -39.03927246 21.29436523 -40.1159668 21.80419922 C-42.77300841 22.90588294 -45.16717615 23.55736109 -48 24 C-45.70698815 21.43798333 -43.48631405 20.09697565 -40.37890625 18.65234375 C-39.45231201 18.21639893 -38.52571777 17.7804541 -37.57104492 17.33129883 C-36.5782251 16.87134521 -35.58540527 16.4113916 -34.5625 15.9375 C-32.4861925 14.96261119 -30.41068718 13.98601229 -28.3359375 13.0078125 C-27.28374023 12.5118457 -26.23154297 12.01587891 -25.14746094 11.50488281 C-19.42297127 8.76785564 -13.76830146 5.89085751 -8.12133789 2.99780273 C-7.34266357 2.60278564 -6.56398926 2.20776855 -5.76171875 1.80078125 C-5.08069092 1.45184814 -4.39966309 1.10291504 -3.69799805 0.7434082 C-2 0 -2 0 0 0 Z " fill="#9CA2A5" transform="translate(170,129)"/>
<path d="M0 0 C4.20619692 1.61924209 8.24393005 3.4939537 12.3046875 5.4453125 C13.54520874 6.03711304 13.54520874 6.03711304 14.81079102 6.64086914 C22.73352862 10.43514434 30.59009476 14.35775471 38.4296875 18.3203125 C39.76259403 18.98783209 41.09568617 19.65498351 42.4296875 20.3203125 C40.4296875 21.3203125 40.4296875 21.3203125 38.65957642 20.77740479 C37.94772186 20.46446472 37.23586731 20.15152466 36.50244141 19.82910156 C35.6946524 19.47833557 34.8868634 19.12756958 34.05459595 18.76617432 C33.18064178 18.37669617 32.30668762 17.98721802 31.40625 17.5859375 C30.50852875 17.19210876 29.6108075 16.79828003 28.68588257 16.39251709 C26.78274072 15.55548759 24.88130479 14.71457042 22.98144531 13.87011719 C20.07782453 12.5805879 17.16838602 11.3049959 14.2578125 10.03125 C12.4110934 9.21697296 10.56472739 8.4018946 8.71875 7.5859375 C7.8488443 7.20455627 6.9789386 6.82317505 6.08267212 6.43023682 C5.2685788 6.06686218 4.45448547 5.70348755 3.61572266 5.32910156 C2.54555405 4.85491791 2.54555405 4.85491791 1.45376587 4.37115479 C-0.75216311 3.22590098 -2.62342861 1.85962322 -4.5703125 0.3203125 C-2.5703125 -0.6796875 -2.5703125 -0.6796875 0 0 Z " fill="#9BA0A3" transform="translate(12.5703125,104.6796875)"/>
<path d="M0 0 C-11.84609591 6.35558052 -23.77883512 12.39798076 -36 18 C-36.66 17.01 -37.32 16.02 -38 15 C-37.1529248 14.62190186 -36.30584961 14.24380371 -35.43310547 13.85424805 C-32.2680795 12.44075603 -29.10359195 11.02607185 -25.93945312 9.6105957 C-24.57410475 9.00009639 -23.20854811 8.39006262 -21.84277344 7.78051758 C-19.87118474 6.90049825 -17.90036978 6.01876568 -15.9296875 5.13671875 C-14.74616699 4.60780029 -13.56264648 4.07888184 -12.34326172 3.53393555 C-10.11170071 2.51006394 -7.91312102 1.41110356 -5.75439453 0.24145508 C-3 -1 -3 -1 0 0 Z " fill="#CAD7DE" transform="translate(171,133)"/>
<path d="M0 0 C2 1.375 2 1.375 4 3 C4 3.66 4 4.32 4 5 C2.71323688 5.75838213 1.42016797 6.50606269 0.125 7.25 C-0.59429687 7.66765625 -1.31359375 8.0853125 -2.0546875 8.515625 C-4.5731201 9.78486159 -7.03984109 10.82442433 -9.6640625 11.84375 C-15.12063801 13.98584854 -20.29215602 16.56811628 -25.5 19.25 C-27.25854668 20.15468586 -29.01887655 21.0559167 -30.78125 21.953125 C-31.54501953 22.34661133 -32.30878906 22.74009766 -33.09570312 23.14550781 C-35 24 -35 24 -37 24 C-37 23.34 -37 22.68 -37 22 C-34.62861307 20.81430654 -32.25717505 19.62871673 -29.88549805 18.44360352 C-27.87302998 17.43679827 -25.8614773 16.42816127 -23.85083008 15.41772461 C-19.40538953 13.18621888 -14.96078415 10.96337008 -10.45703125 8.8515625 C-9.48564209 8.38955444 -9.48564209 8.38955444 -8.49462891 7.91821289 C-6.79656012 7.11414222 -5.09184304 6.32415459 -3.38671875 5.53515625 C-0.84223915 4.22848566 -0.84223915 4.22848566 -0.14453125 1.80859375 C-0.09683594 1.21175781 -0.04914063 0.61492187 0 0 Z " fill="#93494F" transform="translate(173,87)"/>
<path d="M0 0 C2.83430627 1.19194069 5.55892206 2.45317355 8.3125 3.8125 C10.02337231 4.64075967 11.73431248 5.46887918 13.4453125 6.296875 C14.34540039 6.73580078 15.24548828 7.17472656 16.17285156 7.62695312 C20.99639105 9.96957714 25.84352628 12.2625166 30.6875 14.5625 C32.48322123 15.41765739 34.27880735 16.27309858 36.07421875 17.12890625 C37.21250122 17.67140015 37.21250122 17.67140015 38.3737793 18.22485352 C38.91043213 18.48065186 39.44708496 18.7364502 40 19 C36.48698609 20.17100464 36.06499696 19.85771641 32.859375 18.33984375 C32.04275391 17.96093994 31.22613281 17.58203613 30.38476562 17.19165039 C29.51529297 16.77778076 28.64582031 16.36391113 27.75 15.9375 C25.94388751 15.09901783 24.13658199 14.26310097 22.328125 13.4296875 C21.43029297 13.01557617 20.53246094 12.60146484 19.60742188 12.17480469 C14.7954885 10.00673134 9.88745435 8.10121292 4.96875 6.19140625 C2.5685597 5.22817198 0.28553529 4.20438747 -2 3 C-2 2.34 -2 1.68 -2 1 C-1.34 0.67 -0.68 0.34 0 0 Z " fill="#A1A6AA" transform="translate(9,96)"/>
<path d="M0 0 C3.25968184 1.03355766 6.28828932 2.13880597 9.375 3.625 C14.15929124 5.43973116 18.25396576 6.20138998 23.0625 4.09765625 C24.7529794 3.13994514 26.38339433 2.07773711 28 1 C27.4360709 4.27078876 26.54319569 5.86371562 24 8 C20.36257711 9.81871144 16.90161266 9.66587523 13 9 C7.81253165 7.10194956 2.90074591 4.53108353 -2 2 C-1.34 1.34 -0.68 0.68 0 0 Z " fill="#628437" transform="translate(84,150)"/>
<path d="M0 0 C0 0.66 0 1.32 0 2 C-3.16129779 3.73871378 -5.90923317 4.98036641 -9.44921875 5.74609375 C-16.56408432 7.45313725 -23.0435105 11.10648366 -29.59570312 14.27539062 C-30.63275391 14.76587891 -31.66980469 15.25636719 -32.73828125 15.76171875 C-34.14654175 16.4417395 -34.14654175 16.4417395 -35.58325195 17.13549805 C-38 18 -38 18 -41 17 C-39.8140625 16.443125 -38.628125 15.88625 -37.40625 15.3125 C-26.86420149 10.34844602 -16.39777747 5.25926292 -6 0 C-3.50907189 -1.24546405 -2.58919267 -0.7767578 0 0 Z " fill="#A7ACB0" transform="translate(172,86)"/>
<path d="M0 0 C-1.55856052 3.11712103 -4.09910569 3.35100547 -7.3125 4.5625 C-14.75153811 7.41808332 -21.98619858 10.651584 -29.20825195 14.01586914 C-30.01866943 14.38832764 -30.82908691 14.76078613 -31.6640625 15.14453125 C-32.38029785 15.47815674 -33.0965332 15.81178223 -33.83447266 16.15551758 C-36.20191992 17.07874194 -38.49988234 17.56925684 -41 18 C-37.15366894 14.71502537 -32.67876507 12.8462132 -28.125 10.75 C-20.8953097 7.39946745 -20.8953097 7.39946745 -13.77734375 3.8203125 C-13.14489746 3.49063477 -12.51245117 3.16095703 -11.86083984 2.82128906 C-10.16435301 1.9285952 -8.47452274 1.02328395 -6.78515625 0.1171875 C-3.88597198 -1.04573915 -2.83094425 -1.18695012 0 0 Z " fill="#A3A8AC" transform="translate(171,126)"/>
<path d="M0 0 C-0.33 1.32 -0.66 2.64 -1 4 C-1.495 3.01 -1.495 3.01 -2 2 C-6.19984717 3.81332784 -10.39904521 5.62814777 -14.59765625 7.44433594 C-16.02521432 8.06160583 -17.45294699 8.67847207 -18.88085938 9.29492188 C-20.93666196 10.18252466 -22.99182631 11.07159087 -25.046875 11.9609375 C-25.68244324 12.23497406 -26.31801147 12.50901062 -26.97283936 12.79135132 C-29.4536269 13.86627602 -31.88382693 14.93524904 -34.24707031 16.25244141 C-36 17 -36 17 -39 16 C-34.4938377 13.71894956 -29.97845671 11.45762545 -25.45263672 9.21582031 C-23.78103185 8.38717287 -22.11083831 7.55567374 -20.44189453 6.72167969 C-17.88389966 5.44773758 -15.31811793 4.19088857 -12.75 2.9375 C-11.94071045 2.53152588 -11.1314209 2.12555176 -10.29760742 1.70727539 C-9.53424072 1.33852295 -8.77087402 0.96977051 -7.984375 0.58984375 C-7.31116211 0.25847412 -6.63794922 -0.07289551 -5.94433594 -0.41430664 C-3.59949257 -1.12064507 -2.28657764 -0.78270331 0 0 Z " fill="#A2A7AB" transform="translate(171,119)"/>
<path d="M0 0 C0 0.66 0 1.32 0 2 C-0.89976562 2.31710938 -1.79953125 2.63421875 -2.7265625 2.9609375 C-12.31132589 6.41601348 -21.53711347 10.42350375 -30.72314453 14.83544922 C-31.62532715 15.25971191 -32.52750977 15.68397461 -33.45703125 16.12109375 C-34.6632312 16.70008423 -34.6632312 16.70008423 -35.89379883 17.29077148 C-38 18 -38 18 -41 17 C-35.81130353 14.40299128 -30.61521243 11.82167292 -25.41162109 9.25463867 C-23.64224283 8.37903826 -21.87496765 7.49917466 -20.10986328 6.61499023 C-17.57343705 5.34535136 -15.02986148 4.09119807 -12.484375 2.83984375 C-11.69569031 2.44095444 -10.90700562 2.04206512 -10.09442139 1.63108826 C-9.35395569 1.27063919 -8.61348999 0.91019012 -7.85058594 0.53881836 C-7.20216736 0.21682968 -6.55374878 -0.105159 -5.88568115 -0.43690491 C-3.57830413 -1.12592525 -2.25032021 -0.76255213 0 0 Z " fill="#A6ACAF" transform="translate(174,79)"/>
<path d="M0 0 C-8.27835141 4.41979779 -16.56148075 8.82985398 -24.9375 13.0625 C-26.06027344 13.63097656 -27.18304688 14.19945313 -28.33984375 14.78515625 C-31 16 -31 16 -33 16 C-33.33 14.68 -33.66 13.36 -34 12 C-32.74960938 11.61328125 -31.49921875 11.2265625 -30.2109375 10.828125 C-23.4326287 8.57134377 -17.07636619 5.40557015 -10.64453125 2.3203125 C-9.70222656 1.87945312 -8.75992188 1.43859375 -7.7890625 0.984375 C-6.94037598 0.57928711 -6.09168945 0.17419922 -5.21728516 -0.24316406 C-3 -1 -3 -1 0 0 Z " fill="#D3DDE1" transform="translate(163,92)"/>
<path d="M0 0 C4.99841583 0.67112998 9.26760261 2.74459045 13.8125 4.8125 C14.58142578 5.15603516 15.35035156 5.49957031 16.14257812 5.85351562 C21.16179465 8.11110416 26.09223267 10.50974178 31 13 C31 13.99 31 14.98 31 16 C24.549731 13.97470032 18.7174761 11.02390286 12.6875 8 C11.57826172 7.4534375 10.46902344 6.906875 9.32617188 6.34375 C8.27365234 5.8178125 7.22113281 5.291875 6.13671875 4.75 C5.17467529 4.27046875 4.21263184 3.7909375 3.22143555 3.296875 C1 2 1 2 0 0 Z " fill="#C9D5D2" transform="translate(8,111)"/>
<path d="M0 0 C-0.54269531 0.38671875 -1.08539063 0.7734375 -1.64453125 1.171875 C-2.71767578 1.95304687 -2.71767578 1.95304687 -3.8125 2.75 C-4.52019531 3.26046875 -5.22789063 3.7709375 -5.95703125 4.296875 C-10.50058475 8.0846175 -11.43598107 11.13420309 -12 17 C-12.66 17 -13.32 17 -14 17 C-14.4861027 13.03016126 -14.83203065 9.4959743 -12.83984375 5.9140625 C-9.27728623 1.59525875 -5.81389894 -1.93796631 0 0 Z " fill="#9D3231" transform="translate(98,107)"/>
<path d="M0 0 C6.27 2.97 12.54 5.94 19 9 C19 9.66 19 10.32 19 11 C14.59041892 10.33392561 10.73427814 8.73375271 6.6875 6.9375 C6.04232422 6.65583984 5.39714844 6.37417969 4.73242188 6.08398438 C3.15301642 5.3937257 1.57623507 4.69746802 0 4 C0 2.68 0 1.36 0 0 Z " fill="#999F9F" transform="translate(8,107)"/>
<path d="M0 0 C5.00981076 1.50765465 9.48819194 3.62567899 14.125 6 C14.82753906 6.35578125 15.53007813 6.7115625 16.25390625 7.078125 C17.59230093 7.7561775 18.92991828 8.43576742 20.26660156 9.1171875 C22.1728372 10.08802525 24.08464534 11.04728473 26 12 C25.01 12.495 25.01 12.495 24 13 C21.47802734 12.10375977 21.47802734 12.10375977 18.3359375 10.69140625 C17.21445312 10.19189453 16.09296875 9.69238281 14.9375 9.17773438 C13.761875 8.64470703 12.58625 8.11167969 11.375 7.5625 C10.19164062 7.03333984 9.00828125 6.50417969 7.7890625 5.95898438 C4.85616817 4.64627764 1.92674419 3.32634869 -1 2 C-0.67 1.34 -0.34 0.68 0 0 Z " fill="#A6ABAF" transform="translate(29,113)"/>
<path d="M0 0 C1 2 1 2 0.4375 4.0625 C-1 6 -1 6 -3.8125 6.625 C-4.864375 6.74875 -5.91625 6.8725 -7 7 C-8.68375165 7.62225605 -10.35767228 8.27544365 -12 9 C-11.06955722 5.77553449 -10.58896973 4.33696793 -7.6171875 2.63671875 C-6.71226562 2.32347656 -5.80734375 2.01023437 -4.875 1.6875 C-3.50988281 1.19830078 -3.50988281 1.19830078 -2.1171875 0.69921875 C-1.41851562 0.46847656 -0.71984375 0.23773438 0 0 Z " fill="#D8DBE1" transform="translate(175,73)"/>
<path d="M0 0 C2.64 0.66 5.28 1.32 8 2 C5.53698577 4.46301423 3.72639964 4.76766521 0.375 5.625 C-0.62789063 5.88539062 -1.63078125 6.14578125 -2.6640625 6.4140625 C-3.43492188 6.60742188 -4.20578125 6.80078125 -5 7 C-4.1875 5.0625 -4.1875 5.0625 -3 3 C-2.01 2.67 -1.02 2.34 0 2 C0 1.34 0 0.68 0 0 Z " fill="#8AB651" transform="translate(81,3)"/>
<path d="M0 0 C0 0.66 0 1.32 0 2 C-3.09647525 3.53687482 -6.20325282 5.05165282 -9.3125 6.5625 C-10.19357422 7.00013672 -11.07464844 7.43777344 -11.98242188 7.88867188 C-12.82998047 8.29794922 -13.67753906 8.70722656 -14.55078125 9.12890625 C-15.33106689 9.51119385 -16.11135254 9.89348145 -16.9152832 10.28735352 C-19 11 -19 11 -22 10 C-19.23116804 8.51706418 -16.4596027 7.03931138 -13.6875 5.5625 C-12.90181641 5.14162109 -12.11613281 4.72074219 -11.30664062 4.28710938 C-10.54931641 3.88427734 -9.79199219 3.48144531 -9.01171875 3.06640625 C-8.31522217 2.69459229 -7.61872559 2.32277832 -6.90112305 1.93969727 C-4.5842399 0.79449587 -2.60649356 0 0 0 Z " fill="#A4A9AC" transform="translate(144,142)"/>
<path d="M0 0 C-2.7881022 1.5066972 -5.58103958 3.00419804 -8.375 4.5 C-9.1690625 4.92925781 -9.963125 5.35851562 -10.78125 5.80078125 C-11.92207031 6.40986328 -11.92207031 6.40986328 -13.0859375 7.03125 C-13.7876709 7.40830078 -14.4894043 7.78535156 -15.21240234 8.17382812 C-17 9 -17 9 -19 9 C-18 6 -18 6 -14.7265625 4.140625 C-13.36446814 3.49948293 -11.99698732 2.86968944 -10.625 2.25 C-9.93921875 1.92128906 -9.2534375 1.59257813 -8.546875 1.25390625 C-3.38228954 -1.12742985 -3.38228954 -1.12742985 0 0 Z " fill="#CCD5DA" transform="translate(163,92)"/>
<path d="M0 0 C4.57888152 1.45115322 8.97649435 3.20581904 13.375 5.125 C14.01566406 5.40214844 14.65632813 5.67929688 15.31640625 5.96484375 C16.87856925 6.64100385 18.43942315 7.32018707 20 8 C19.67 8.99 19.34 9.98 19 11 C12.73 7.7 6.46 4.4 0 1 C0 0.67 0 0.34 0 0 Z " fill="#CED7DB" transform="translate(8,106)"/>
<path d="M0 0 C5.34844008 0.53484401 9.35796103 2.46690767 14 5 C14 5.66 14 6.32 14 7 C8.93001981 6.34580901 4.58009223 4.1453591 0 2 C0 1.34 0 0.68 0 0 Z " fill="#557C31" transform="translate(70,144)"/>
<path d="M0 0 C2 1.375 2 1.375 4 3 C4 3.66 4 4.32 4 5 C-0.95 7.475 -0.95 7.475 -6 10 C-6.66 9.34 -7.32 8.68 -8 8 C-6.865625 7.4225 -5.73125 6.845 -4.5625 6.25 C-1.62689703 4.64507365 -1.62689703 4.64507365 -0.0625 1.75 C-0.041875 1.1725 -0.02125 0.595 0 0 Z " fill="#992E2E" transform="translate(173,87)"/>
<path d="M0 0 C-0.33 1.32 -0.66 2.64 -1 4 C-1.33 3.34 -1.66 2.68 -2 2 C-3.6396875 2.7425 -3.6396875 2.7425 -5.3125 3.5 C-9 5 -9 5 -12 5 C-12 4.34 -12 3.68 -12 3 C-10.75823305 2.29773859 -9.50614401 1.61370891 -8.25 0.9375 C-7.20585937 0.36322266 -7.20585937 0.36322266 -6.140625 -0.22265625 C-3.63859372 -1.1312406 -2.4667645 -0.88336837 0 0 Z " fill="#999DA0" transform="translate(171,119)"/>
<path d="M0 0 C-2.26504965 1.19984797 -4.53589888 2.38494769 -6.8125 3.5625 C-7.45509766 3.90474609 -8.09769531 4.24699219 -8.75976562 4.59960938 C-10.46926395 5.4765023 -12.23321294 6.24515617 -14 7 C-14.99 6.67 -15.98 6.34 -17 6 C-14.54195513 3.024472 -12.71363957 2.69090969 -9 2 C-7.96875 1.46375 -6.9375 0.9275 -5.875 0.375 C-3 -1 -3 -1 0 0 Z " fill="#B9C1C4" transform="translate(122,154)"/>
<path d="M0 0 C0.57234375 0.21527344 1.1446875 0.43054688 1.734375 0.65234375 C0.454702 3.21168976 -0.50763536 3.35126705 -3.140625 4.33984375 C-3.83929688 4.61183594 -4.53796875 4.88382813 -5.2578125 5.1640625 C-7.265625 5.65234375 -7.265625 5.65234375 -10.265625 4.65234375 C-9.02618224 3.78292881 -7.77355441 2.93228918 -6.515625 2.08984375 C-5.81953125 1.61417969 -5.1234375 1.13851562 -4.40625 0.6484375 C-2.265625 -0.34765625 -2.265625 -0.34765625 0 0 Z " fill="#999DA0" transform="translate(169.265625,125.34765625)"/>
<path d="M0 0 C0 0.66 0 1.32 0 2 C-2.97 2.66 -5.94 3.32 -9 4 C-8 1 -8 1 -6.1875 -0.25 C-3.66056586 -1.11637742 -2.47778006 -0.88492145 0 0 Z " fill="#A1A6A9" transform="translate(174,79)"/>
<path d="M0 0 C0.99 0.33 1.98 0.66 3 1 C2.01 1.66 1.02 2.32 0 3 C-0.33 3.99 -0.66 4.98 -1 6 C-1.99 6.33 -2.98 6.66 -4 7 C-4.33 5.68 -4.66 4.36 -5 3 C-2.6875 1.4375 -2.6875 1.4375 0 0 Z " fill="#BFC4C8" transform="translate(129,108)"/>
<path d="M0 0 C-3.36423277 2.96052484 -6.69159287 3.92289822 -11 5 C-4.83050847 -1.61016949 -4.83050847 -1.61016949 0 0 Z " fill="#9EA3A6" transform="translate(156,97)"/>
<path d="M0 0 C0.33 0.66 0.66 1.32 1 2 C0.0625 4.125 0.0625 4.125 -1 6 C-1.99 5.67 -2.98 5.34 -4 5 C-4.33 4.01 -4.66 3.02 -5 2 C-3.35 1.34 -1.7 0.68 0 0 Z " fill="#D6D1DA" transform="translate(175,73)"/>
</svg>