<?xml version="1.0" encoding="UTF-8" standalone="no"?>
<svg
   version="1.1"
   id="Layer_1"
   x="0px"
   y="0px"
   xml:space="preserve"
   viewBox="35.01 3.71 40.758217 49.156428"
   width="40.758217"
   height="49.156425"
   xmlns="http://www.w3.org/2000/svg"
   xmlns:svg="http://www.w3.org/2000/svg"><defs
     id="defs1" /><g
     id="g9"
     transform="matrix(0.67989773,0,0,0.67989773,-30.127119,13.297051)"><g
       id="g1"
       transform="matrix(0.0806085,0,0,0.0806085,119.65549,59.690331)"
       style="display:inline"><path
         fill-rule="evenodd"
         clip-rule="evenodd"
         d="m 414.1748,-502.63538 c 0,-28.53291 -36.95567,-38.682 -61.40449,-45.39629 -2.24631,-0.61686 -4.38623,-1.20487 -6.38406,-1.77524 -30.53274,-8.72406 -73.89507,-17.37977 -125.86536,-17.37977 -55.63676,0 -101.51014,18.52622 -133.011103,36.52834 -4.818837,2.75339 -9.886038,6.5571 -14.466011,9.99474 -6.048426,4.54184 -11.244824,8.44495 -13.901133,8.44495 -2.656199,0 -7.852607,-3.90311 -13.901027,-8.44495 -4.579973,-3.43764 -9.647282,-7.24135 -14.466012,-9.99474 -31.50096327,-18.00212 -77.37508,-36.52834 -133.011104,-36.52834 -51.97093,0 -95.33262,8.65571 -125.86599,17.37977 -1.92007,0.5484 -3.97738,1.11485 -6.13622,1.70931 -24.34106,6.70268 -61.65169,16.97643 -61.65169,45.46222 v 419.583336 c 0,11.186726 5.79182,21.573093 15.30736,27.456922 15.13791,9.353488 35.11493,1.165146 52.81819,-6.090362 6.17593,-2.533655 12.07518,-4.951102 17.39582,-6.471315 25.94907,-7.413763 63.2765,-14.895245 108.13253,-14.895245 40.70919,0 71.185203,13.429966 94.0318287,27.489249 5.867666,3.611645 11.799986,8.21729 17.88718,12.942525 15.0468423,11.686947 31.0555703,24.119527 49.4591343,24.119527 18.455226,0 34.383237,-12.387365 49.404417,-24.067973 6.09364,-4.741293 12.03874,-9.363102 17.94201,-12.994079 22.84789,-14.059283 53.32252,-27.489249 94.03182,-27.489249 44.85666,0 82.18346,7.481482 108.13306,14.895245 5.56436,1.591206 11.60634,4.140918 17.87756,6.790781 17.43207,7.362103 36.636,15.472904 52.33487,5.770896 9.51491,-5.883829 15.30842,-16.270196 15.30842,-27.456922 z m -634.78066,17.99335 c -6.48377,2.06956 -10.73224,8.17513 -10.73224,14.98133 v 318.80078 c 0,10.77683 10.35689,18.53267 20.83296,16.00873 28.73499,-6.91987 65.59378,-12.75215 108.26964,-12.75215 56.904806,0 99.3895527,19.34612 129.102496,37.83029 v -345.87959 c -6.490542,-5.15574 -16.018342,-12.04593 -28.1152923,-18.95979 -24.9803137,-14.27352 -59.7963837,-28.02295 -100.9872037,-28.02295 -51.15398,0 -92.63469,9.7786 -118.37036,17.99335 z m 441.12675,337.03869 c -56.90522,0 -99.38965,19.34612 -129.102597,37.83029 v -345.87959 c 6.49065,-5.15574 16.018457,-12.04593 28.115297,-18.95979 24.98137,-14.27352 59.79712,-28.02295 100.9873,-28.02295 51.15367,0 92.63438,9.7786 118.37089,17.99335 6.4842,2.06956 10.73172,8.17513 10.73172,14.98133 v 318.80078 c 0,10.77683 -10.35732,18.53267 -20.8339,16.00873 -28.735,-6.91987 -65.5938,-12.75215 -108.26871,-12.75215 z"
         fill="#0f0f0f"
         id="path1"
         style="fill:#141233;fill-opacity:1;stroke-width:32.2757" /><path
         style="fill:#ffffff;fill-opacity:1;stroke-width:12.1647"
         d="m 3.3432727,-124.96885 c -8.892552,-4.63132 -27.6295697,-11.59668 -41.6378287,-15.47854 -32.192784,-8.9211 -97.291964,-9.5411 -146.204174,-1.39251 -27.36137,4.55833 -35.03238,4.81477 -39.25266,1.31231 -4.54322,-3.77054 -5.24537,-26.65215 -5.24537,-170.9358 v -166.58252 l 11.29584,-4.71776 c 22.84774,-9.54244 67.30235,-16.52508 106.87595,-16.78738 34.48228,-0.22861 43.78732,1.00835 67.774996,9.00893 15.292821,5.10061 36.7983307,15.10878 47.7900517,22.24036 l 19.9849343,12.96652 v 169.55532 c 0,93.25544 -1.172952,169.48252 -2.606727,169.39351 -1.433758,-0.0886 -9.88246,-3.95109 -18.7750123,-8.5824 z"
         id="path10" /><path
         style="fill:#ffffff;fill-opacity:1;stroke-width:12.1647"
         d="m 94.237831,-286.16869 v -169.94408 l 16.873309,-10.82758 c 42.4146,-27.21737 90.50198,-38.04297 143.28997,-32.25791 42.1716,4.62159 81.80643,13.72711 88.38429,20.30495 7.84585,7.84585 7.7777,331.8517 -0.0714,338.36569 -4.22029,3.50251 -11.8913,3.24608 -39.25268,-1.31232 -43.74387,-7.28759 -113.97736,-7.44537 -141.5874,-0.31806 -11.39335,2.9411 -30.666,9.97928 -42.82816,15.6404 -12.16212,5.66112 -22.719394,10.29293 -23.460561,10.29293 -0.741168,0 -1.347593,-76.47482 -1.347593,-169.94408 z"
         id="path11" /><path
         style="fill:#ffffff;fill-opacity:1;stroke-width:4.83036"
         d="m -80.32253,-669.05806 c -16.03083,-13.01562 -28.97038,-24.10671 -28.75457,-24.64688 1.04804,-2.62344 113.3916577,-166.97896 114.1110037,-166.94123 0.699145,0.0367 100.8139163,181.41481 101.9718863,184.74258 0.5912,1.69899 -35.48121,30.51788 -38.12836,30.4615 -1.258925,-0.0269 -8.623766,-5.84389 -16.366456,-12.92684 -19.250788,-17.61042 -23.260143,-19.44448 -42.506668,-19.44448 -19.3109813,0 -23.783464,2.04805 -42.755225,19.57863 -7.605988,7.02821 -14.86308,12.79272 -16.126879,12.81002 -1.263741,0.0173 -15.413932,-10.61768 -31.444732,-23.6333 z"
         id="path12" /><path
         style="fill:#ffffff;fill-opacity:1;stroke-width:4.83036"
         d="m 210.11952,-668.30745 c -12.14491,-11.02046 -22.92246,-20.86236 -23.95011,-21.87089 -1.56387,-1.53476 1.65274,-5.96345 19.73637,-27.17304 11.88265,-13.93665 22.03916,-25.47388 22.57002,-25.63831 0.9879,-0.30591 37.70463,65.42715 37.94051,67.92411 0.22207,2.34997 -28.51359,26.85536 -31.4549,26.82441 -1.59394,-0.0168 -12.09009,-8.49514 -24.84189,-20.06628 z"
         id="path13" /></g><g
       style="fill:none"
       id="g2"
       transform="matrix(5.9883643,0,0,4.805115,-60.459876,-136.14596)"><path
         d="M 30.679944,26.303968 M 29.422433,28.08162"
         style="stroke:#000000;stroke-width:0.689296;stroke-linecap:round;stroke-linejoin:round;stroke-dasharray:none"
         id="path1-5" /><path
         d="m 31.945014,29.308029 0.09373,-0.06403 0.05135,-0.07508 1.139744,-1.666681 c 0.623786,1.462112 1.447699,3.194076 2.043184,4.681615 0.03126,0.07811 -0.09406,-0.176971 -0.119953,-0.257861 m -8.645257,0.353459 0.07542,-0.231529 m 0,0 3.3701,-6.180077 c 0.08952,-0.164671 0.32483,-0.162279 0.411036,0.0043 l 1.539963,3.488639"
         stroke="#000000"
         stroke-width="0.892166"
         stroke-linecap="round"
         stroke-linejoin="round"
         id="path1-4-4"
         style="fill:none;stroke:#141233;stroke-width:0.723606;stroke-dasharray:none;stroke-opacity:1" /><path
         d="m 28.452173,29.001081 c -0.122164,-0.123472 -0.30445,-0.104476 -0.407138,0.04221 -0.102631,0.1469 -0.08682,0.366194 0.03557,0.489736 z m 0.718723,1.180396 0.18669,-0.265306 -7.62e-4,-7.81e-4 z m 0.521286,-0.02603 0.204302,0.245817 1.92e-4,-2.81e-4 z m 0.24732,-0.29795 -0.204303,-0.245748 -1.53e-4,2.25e-4 z m 0.544769,0 0.204472,-0.245537 -1.92e-4,-2.25e-4 z m 0.24732,0.29795 -0.204472,0.245536 1.92e-4,2.74e-4 z m 0.521285,0.02603 -0.185842,-0.26608 -8.08e-4,8.37e-4 z m 1.043932,-1.16342 c -0.102632,-0.146899 0.0062,-0.361409 -0.116011,-0.237586 0.215198,0.397783 0.619615,0.666184 0.116011,0.237586 z m -4.216445,0.515204 0.904617,0.914309 0.371855,-0.532159 -0.904628,-0.914309 z m 0.90381,0.913514 c 0.129108,0.131422 0.294571,0.199666 0.463478,0.191293 l -0.02371,-0.694536 c -0.02427,0.0012 -0.04742,-0.0091 -0.06622,-0.02674 z m 0.463478,0.191293 c 0.169019,-0.0091 0.32912,-0.09287 0.4488,-0.236671 l -0.408549,-0.491565 c -0.0175,0.0204 -0.03952,0.03236 -0.06407,0.03377 z m 0.448969,-0.236952 0.24732,-0.297951 -0.408944,-0.491072 -0.24732,0.29795 z m 0.24715,-0.297739 c 0.01807,-0.02181 0.04234,-0.03377 0.06814,-0.03377 v -0.694818 c -0.17873,0 -0.35029,0.08541 -0.476688,0.237446 z m 0.06814,-0.03377 c 0.02597,0 0.04968,0.01266 0.06808,0.03377 l 0.408549,-0.491565 c -0.126398,-0.152036 -0.297845,-0.237446 -0.476631,-0.237446 z m 0.06791,0.03377 0.24732,0.29795 0.408944,-0.491073 -0.24732,-0.29795 z m 0.247545,0.298301 c 0.119624,0.143804 0.279837,0.2283 0.448744,0.236672 l 0.02371,-0.694537 c -0.02427,-0.0012 -0.04629,-0.01337 -0.06413,-0.03377 z m 0.448744,0.236672 c 0.168963,0.0091 0.334426,-0.0598 0.463477,-0.191293 l -0.373322,-0.530541 c -0.01863,0.019 -0.04177,0.02814 -0.06616,0.02673 z m 0.462687,-0.190449 0.810454,-0.911713 -0.277692,-0.534762 -0.904611,0.914295 z"
         fill="#71717a"
         id="path3-3-8"
         style="fill:#141233;fill-opacity:1;stroke-width:0.787767;stroke-dasharray:none" /><path
         id="path3-3-3-4"
         style="fill:#141233;fill-opacity:1;stroke-width:0.787767;stroke-dasharray:none"
         d="m 32.101939,28.797943 v 4.3e-4 l 3.45e-4,4.29e-4 -3.45e-4,4.3e-4 c -0.0739,0.0029 -0.146902,0.03971 -0.201223,0.109499 -0.10866,0.140004 -0.102854,0.359847 0.01482,0.491242 v 4.3e-4 l 0.864158,0.970891 c 0.123412,0.139662 0.286081,0.218915 0.455165,0.221575 0.169172,0.0019 0.332018,-0.07153 0.457576,-0.207404 h 3.45e-4 l 0.259454,-0.281692 c 0.0162,-0.0176 0.03702,-0.02691 0.05858,-0.02834 -0.002,-0.0332 -0.0043,-0.06637 -0.0055,-0.09962 6.88e-4,-0.08692 0.0017,-0.173743 0.0028,-0.260651 0.0022,-0.172973 0.0053,-0.3462 0.0083,-0.519154 4.04e-4,-0.03592 5.21e-4,-0.07185 6.89e-4,-0.107782 -0.161313,0.105202 -0.34696,0.384474 -0.452063,0.498113 h -3.45e-4 l -0.259799,0.281692 c -0.01833,0.01923 -0.04026,0.02897 -0.06478,0.02877 h -3.45e-4 c -0.02429,-4.94e-4 -0.04697,-0.01215 -0.06478,-0.03092 l -0.197089,0.251204 0.197089,-0.252492 -6.89e-4,-8.59e-4 -0.865192,-0.97218 c -0.0584,-0.06581 -0.133192,-0.09639 -0.207081,-0.09361 z m 3.993114,0.08502 -3.45e-4,4.3e-4 c 0.002,0.0031 0.0047,0.0061 0.0065,0.0086 l 0.0041,0.0064 c -0.0015,-0.0093 -0.0052,-0.01443 -0.01034,-0.01546 z m -1.061936,1.014691 c 0.0013,0.0035 0.0021,0.0071 0.0031,0.01074 0.0011,-0.0038 -0.0044,-0.01435 -0.0031,-0.01074 z m -0.585409,0.757905 c 0.0017,0.01403 0.0045,0.02747 0.0093,0.03951 -2.49e-4,-0.002 -4.45e-4,-0.004 -6.89e-4,-0.006 -0.0013,-0.01075 -0.0023,-0.02145 -0.0034,-0.03221 -0.0013,-3.69e-4 -0.0038,-9.1e-4 -0.0052,-0.0013 z" /><path
         style="fill:#d2d5fa;fill-opacity:1;stroke-width:0.318963"
         d="m 27.111875,29.646066 c -1.246418,-0.903807 -3.417612,-1.787044 -5.194544,-2.113129 -1.702016,-0.312338 -4.081384,-0.26547 -6.377627,0.125624 -0.550451,0.09375 -1.015487,0.155791 -1.033414,0.137864 -0.01793,-0.01793 0.736365,-1.163893 1.676206,-2.54659 1.516851,-2.231598 1.725067,-2.499909 1.853605,-2.388597 1.033784,0.895243 3.064822,2.43152 3.341642,2.527619 0.196528,0.06822 0.64439,0.122394 0.99525,0.120376 0.861603,-0.005 1.356694,-0.240905 2.179436,-1.038673 0.362706,-0.351697 0.735275,-0.639449 0.827932,-0.639449 0.09266,0 0.465225,0.287752 0.827932,0.639449 0.837506,0.812084 1.314585,1.035098 2.225001,1.04009 0.983048,0.0054 1.287987,-0.167922 2.955922,-1.680001 l 1.43109,-1.297364 0.244285,0.22335 c 2.816834,2.575438 2.819019,2.576852 3.980711,2.576852 0.972018,0 1.255905,-0.121124 2.211469,-0.943552 l 0.617574,-0.531531 1.121131,2.045291 c 0.61662,1.12491 1.107848,2.057944 1.091617,2.073408 -0.01623,0.01546 -0.378093,-0.04818 -0.804137,-0.141437 -2.280705,-0.499211 -5.592593,-0.644929 -7.290588,-0.320777 -1.862273,0.355514 -4.17302,1.301852 -5.331243,2.183346 -0.300736,0.228883 -0.628813,0.414859 -0.729059,0.413279 -0.100245,-0.0016 -0.469331,-0.211031 -0.820191,-0.465448 z"
         id="path9"
         transform="matrix(0.25947294,0,0,0.3233676,23.626538,22.392973)" /></g></g></svg>
